# xmcd CD database file
#
# Track frame offsets:
#	150
#	11725
#	25173
#	38345
#	60338
#	75721
#	90326
#	105005
#	118722
#	134755
#	147542
#
# Disc length: 2206 seconds
#
# Revision: 1
# Processed by: cddbd v1.5.1PL2 Copyright (c) Steve Scherf et al.
# Submitted via: CDex 1.60beta1
#
DISCID=80089c0b
DTITLE=Foster Martin Band - On a roller coaster ride
DYEAR=2004
DGENRE=Country
TTITLE0=Sweet Magnolia
TTITLE1=Like a Roller Coaster Ride
TTITLE2=See a little more of you
TTITLE3=Someone Who Loves You
TTITLE4=Rock This House
TTITLE5=Daddy's little girl
TTITLE6=The Apple
TTITLE7=Let's go Dancing
TTITLE8=Ain't Going Back No More
TTITLE9=Heaven in Tennessee
TTITLE10=I've Been going to Georgia
EXTD=YEAR: 2004
EXTT0=
EXTT1=
EXTT2=
EXTT3=
EXTT4=
EXTT5=
EXTT6=
EXTT7=
EXTT8=
EXTT9=
EXTT10=
PLAYORDER=
